<svg width="20" height="20" viewBox="0 0 20 20" fill="none" xmlns="http://www.w3.org/2000/svg">
<g clip-path="url(#clip0_503_822)">
<path d="M8.22667 1.73373L7.95323 1.56224C7.41807 1.23412 6.7501 1.04349 6.17589 1.2224C5.5587 1.41459 5.06651 1.88998 4.8087 2.60404L4.44151 2.41498C3.8087 2.0892 3.47745 2.08412 3.20284 2.20756C2.9837 2.3056 2.75518 2.54154 2.4962 2.88607L5.71495 5.37474C6.21885 5.53881 6.95714 5.5349 7.69542 5.34349C8.4376 5.15209 9.17589 4.77709 9.71495 4.27318L10.9298 1.26928C9.85948 0.423573 8.88292 0.913417 8.22667 1.73373ZM10.3009 4.7224C9.63682 5.39428 8.64854 5.8474 7.87901 6.05053C7.60948 6.12084 7.33995 6.17162 7.07823 6.19896C6.9337 6.43724 6.8126 6.67943 6.71885 6.92162C6.90635 7.87474 7.25792 8.65599 7.78526 9.29662L7.22276 9.76537C6.89854 9.37474 6.60948 8.95287 6.39073 8.48412C6.35557 9.39037 6.5587 10.3279 6.89073 11.3044L6.19932 11.5388C5.58995 9.75756 5.38292 7.93334 6.23838 6.21459C5.94932 6.19115 5.67589 6.13646 5.42198 6.04662L5.41026 6.04271C5.24229 6.20287 5.08213 6.37084 4.92979 6.54662C3.69659 7.97631 3.01729 9.87865 3.37276 11.3591C3.56299 12.1521 3.90401 12.9021 4.39463 13.5427C5.11338 13.5271 5.79307 13.5427 6.41026 13.7771C6.70323 13.7458 7.00401 13.7263 7.31651 13.7263C8.42979 13.7263 9.4376 13.9333 10.1993 14.2927C10.4962 14.4333 10.7657 14.6013 10.9806 14.7927C10.9806 14.5857 11.0118 14.363 11.0743 14.199C10.7267 13.8708 10.5079 13.4724 10.5079 13.0193C10.5079 12.3904 10.9259 11.8708 11.5314 11.4958C11.5314 11.3161 11.5665 11.1443 11.629 10.9802C11.2345 10.6404 10.9806 10.2185 10.9806 9.72631C10.9806 9.41771 11.0821 9.13646 11.254 8.88256C11.0821 8.63256 10.9806 8.35131 10.9806 8.04271C10.9806 7.89037 11.004 7.74974 11.047 7.61303C10.6681 7.27709 10.4298 6.86303 10.4298 6.38646C10.4298 5.91381 10.6642 5.50365 11.0392 5.17162C10.8087 4.99193 10.5626 4.83959 10.3009 4.7224ZM14.6524 4.81224C13.6368 4.81224 12.7189 5.02709 12.0899 5.34349C11.4571 5.6599 11.1603 6.05053 11.1603 6.38646C11.1603 6.72631 11.4571 7.11693 12.0899 7.43334C12.7189 7.74974 13.6368 7.96459 14.6524 7.96459C15.0939 7.96459 15.5118 7.92162 15.8985 7.85131V7.18724C16.4415 7.10521 16.8907 6.95678 17.1798 6.76537V7.45287C17.6681 7.31224 18.1368 6.79271 18.1485 6.38646C18.1485 6.05053 17.8517 5.6599 17.2189 5.34349C16.586 5.02709 15.672 4.81224 14.6524 4.81224ZM18.422 7.45678C18.2931 7.59349 18.1407 7.7224 17.9689 7.83959L17.9767 8.9724C18.4689 8.67943 18.6993 8.33959 18.6993 8.04271C18.6993 7.85521 18.6095 7.65209 18.422 7.45678ZM11.711 8.05834C11.7228 8.39428 12.0196 8.77318 12.6407 9.08568C13.2735 9.40599 14.1876 9.61693 15.2071 9.61693C15.8439 9.61693 16.4415 9.53099 16.9532 9.39037L16.9806 8.32787C16.3087 8.56224 15.5118 8.69115 14.6524 8.69115C13.5392 8.69115 12.5274 8.46849 11.7618 8.08568C11.7423 8.07787 11.7267 8.06615 11.711 8.05834ZM11.7892 9.41771C11.7345 9.52318 11.711 9.62865 11.711 9.72631C11.711 10.0662 12.0079 10.4568 12.6407 10.7732C13.2735 11.0896 14.1876 11.3005 15.2071 11.3005C15.7228 11.3005 16.211 11.2497 16.6524 11.1521V10.2146C16.1993 10.3005 15.7149 10.3435 15.2071 10.3435C14.0899 10.3435 13.0782 10.1247 12.3126 9.73803C12.1212 9.64428 11.9454 9.5349 11.7892 9.41771ZM18.6212 9.41771C18.3829 9.58568 18.1759 9.71068 17.9337 9.81615V10.6872C18.4532 10.3865 18.6993 10.0349 18.6993 9.72631C18.6993 9.62865 18.6759 9.52318 18.6212 9.41771ZM18.9142 10.8552C18.836 10.9333 18.7501 11.0076 18.6564 11.0818V12.3474C19.0587 12.074 19.254 11.7732 19.254 11.4997C19.254 11.2927 19.1407 11.0701 18.9142 10.8552ZM12.2696 11.4021C12.2657 11.4372 12.2618 11.4685 12.2618 11.4997C12.2618 11.8396 12.5587 12.2263 13.1915 12.5427C13.8243 12.863 14.7423 13.074 15.7579 13.074C16.3399 13.074 16.8946 13.0036 17.3751 12.8865V11.7185C16.7384 11.9216 16.0001 12.031 15.2071 12.031C14.0899 12.031 13.0782 11.8083 12.3126 11.4255C12.297 11.4177 12.2853 11.4099 12.2696 11.4021ZM11.7384 12.238C11.3985 12.4919 11.2384 12.7693 11.2384 13.0193C11.2384 13.3591 11.5353 13.7458 12.1681 14.0661C12.8009 14.3826 13.7149 14.5935 14.7345 14.5935C15.1056 14.5935 15.4649 14.5661 15.8009 14.5154V13.8044H15.7579C14.6407 13.8044 13.629 13.5818 12.8634 13.1951C12.3751 12.9529 11.9689 12.6286 11.7384 12.238ZM18.086 13.4333C17.7774 13.5427 17.4415 13.6326 17.0821 13.6911V14.1638C17.1564 14.1326 17.2306 14.1013 17.3009 14.0661C17.6837 13.8708 17.9415 13.6521 18.086 13.4333ZM18.4454 14.1443C18.297 14.2927 18.1251 14.4255 17.9337 14.5466V15.6638C18.4532 15.3669 18.6993 15.0154 18.6993 14.7068C18.6993 14.5271 18.6173 14.3318 18.4454 14.1443ZM4.82432 14.2536C4.42588 14.2576 3.9962 14.3083 3.55088 14.4138C2.65987 14.6208 1.89385 14.9997 1.39385 15.4177C0.893854 15.8318 0.698541 16.2536 0.757135 16.5544C0.815729 16.8552 1.12432 17.1326 1.72588 17.2927C2.32549 17.449 3.16417 17.4568 4.05479 17.2497C4.41417 17.1638 4.7501 17.0544 5.0587 16.9255V16.1169C5.62901 15.863 6.05479 15.5583 6.2462 15.2615V16.2146C6.71885 15.8083 6.90245 15.4021 6.84776 15.1052C6.79307 14.8044 6.48057 14.5271 5.87901 14.3708C5.57823 14.2927 5.21885 14.2497 4.82432 14.2536ZM7.34776 14.4568C7.45323 14.6091 7.52745 14.781 7.56651 14.9724C7.60948 15.2068 7.58995 15.4333 7.51964 15.656C7.90635 15.7576 8.25792 15.8943 8.5626 16.0661C8.73448 16.1599 8.89464 16.2732 9.03526 16.3904C9.38682 16.3083 9.6837 16.1911 9.89464 16.0505V16.8552C10.5235 16.5583 10.8126 16.1951 10.8126 15.906C10.8126 15.613 10.5235 15.2497 9.89073 14.9529C9.26182 14.6599 8.35557 14.4607 7.34776 14.4568ZM11.7149 14.6521C11.711 14.6677 11.711 14.6872 11.711 14.7068C11.711 15.0466 12.0079 15.4333 12.6407 15.7536C13.2735 16.0701 14.1876 16.281 15.2071 16.281C15.7228 16.281 16.211 16.2263 16.6524 16.1326V15.0818C16.0743 15.238 15.422 15.324 14.7345 15.324C13.6173 15.324 12.6056 15.1013 11.8399 14.7185C11.797 14.6951 11.754 14.6716 11.7149 14.6521ZM11.8243 16.1091C11.7462 16.238 11.711 16.363 11.711 16.4841C11.711 16.824 12.0079 17.2107 12.6407 17.531C13.2735 17.8474 14.1876 18.0583 15.2071 18.0583C15.7228 18.0583 16.211 18.0036 16.6524 17.9099V16.8786C16.1993 16.9646 15.7149 17.0115 15.2071 17.0115C14.0899 17.0115 13.0782 16.7888 12.3126 16.4021C12.1368 16.3161 11.9728 16.2185 11.8243 16.1091ZM18.586 16.1091C18.3595 16.2615 18.1603 16.3826 17.9337 16.4802V17.4411C18.4532 17.1443 18.6993 16.7927 18.6993 16.4841C18.6993 16.363 18.6642 16.238 18.586 16.1091ZM7.15635 16.3201C7.01963 16.4919 6.85948 16.656 6.67979 16.8044C6.07042 17.3161 5.21104 17.7302 4.21885 17.9607C3.86495 18.0427 3.51339 18.0935 3.17588 18.1208C3.30088 18.3279 3.52081 18.531 3.84268 18.7107C4.3751 19.0115 5.15635 19.2146 6.02354 19.2146C6.41807 19.2146 6.79307 19.1716 7.13682 19.0974V18.2849C7.67588 18.2029 8.12901 18.0544 8.41807 17.863V18.5818C8.8087 18.3083 8.9962 17.9997 8.9962 17.7068C8.9962 17.3669 8.74229 17.0036 8.20714 16.7029C7.91807 16.5427 7.5587 16.4099 7.15635 16.3201Z" fill="#4B4B4D"/>
</g>
<defs>
<clipPath id="clip0_503_822">
<rect width="20" height="20" fill="white"/>
</clipPath>
</defs>
</svg>
