<svg width="25" height="25" viewBox="0 0 25 25" fill="none" xmlns="http://www.w3.org/2000/svg">
<path d="M6.71249 3.83867C7.26129 3.47197 7.84099 3.16005 8.44319 2.90544C9.90455 2.28759 10.6352 1.97867 11.5675 2.59664C12.4997 3.21463 12.4997 4.22635 12.4997 6.24981V8.33314C12.4997 10.2973 12.4997 11.2794 13.1099 11.8896C13.7201 12.4998 14.7022 12.4998 16.6663 12.4998H18.7497C20.7731 12.4998 21.7849 12.4998 22.4028 13.432C23.0208 14.3643 22.7119 15.0949 22.0941 16.5563C21.8395 17.1585 21.5275 17.7381 21.1608 18.287C20.0162 20 18.3894 21.3351 16.4859 22.1236C14.5826 22.912 12.4881 23.1182 10.4675 22.7163C8.44685 22.3144 6.59078 21.3223 5.13399 19.8655C3.67719 18.4087 2.68509 16.5526 2.28317 14.532C1.88124 12.5114 2.08752 10.4169 2.87594 8.51352C3.66435 6.61012 4.99948 4.98327 6.71249 3.83867Z" fill="#1C274C"/>
<path fill-rule="evenodd" clip-rule="evenodd" d="M14.3481 2.21659C14.4556 1.79874 14.8815 1.54719 15.2994 1.65473C19.2355 2.66781 22.3325 5.76483 23.3456 9.70092C23.4531 10.1188 23.2015 10.5447 22.7837 10.6522C22.3658 10.7598 21.94 10.5082 21.8324 10.0904C20.9612 6.7056 18.2947 4.03909 14.9099 3.16792C14.4921 3.06036 14.2405 2.63445 14.3481 2.21659Z" fill="#A4A9B7"/>
</svg>
