<svg width="25" height="25" viewBox="0 0 25 25" fill="none" xmlns="http://www.w3.org/2000/svg">
<path fill-rule="evenodd" clip-rule="evenodd" d="M9.63477 4.16634C9.63477 2.58428 10.9173 1.30176 12.4993 1.30176C14.0814 1.30176 15.3639 2.58428 15.3639 4.16634C15.3639 5.7484 14.0814 7.03092 12.4993 7.03092C10.9173 7.03092 9.63477 5.7484 9.63477 4.16634Z" fill="#1C274C"/>
<path d="M8.56637 12.0559L6.30043 11.3006C5.64863 11.0833 5.20898 10.4733 5.20898 9.78629C5.20898 8.77007 6.14599 8.01257 7.13966 8.2255L9.1163 8.64907C9.22621 8.67262 9.28117 8.68439 9.33566 8.69566C11.4236 9.12754 13.5777 9.12754 15.6657 8.69566C15.7201 8.68439 15.7751 8.67262 15.885 8.64907L17.8616 8.22549C18.8553 8.01257 19.7923 8.77007 19.7923 9.78629C19.7923 10.4733 19.3526 11.0833 18.7009 11.3006L16.4349 12.0559C16.1611 12.1472 16.0242 12.1928 15.9212 12.2564C15.5705 12.4728 15.3804 12.8756 15.4363 13.2839C15.4527 13.4038 15.5045 13.5385 15.6082 13.8079L16.9069 17.1847C17.2935 18.1898 16.5515 19.2701 15.4745 19.2701C14.9239 19.2701 14.4153 18.9751 14.1421 18.4968L12.5007 15.6242L10.8592 18.4968C10.586 18.9751 10.0775 19.2701 9.52675 19.2701C8.4498 19.2701 7.70783 18.1898 8.09443 17.1847L9.39317 13.8079C9.49679 13.5385 9.5486 13.4038 9.56499 13.2839C9.62082 12.8756 9.43072 12.4728 9.08008 12.2564C8.97712 12.1928 8.8402 12.1472 8.56637 12.0559Z" fill="#606882"/>
<path d="M12.4997 22.9164C18.2526 22.9164 22.9163 20.8177 22.9163 18.2289C22.9163 16.4353 20.6777 14.877 17.3893 14.0889L18.3643 16.6239C19.1445 18.6525 17.6471 20.8328 15.4735 20.8328C14.3622 20.8328 13.3359 20.2373 12.7846 19.2723L12.4997 18.7738L12.2148 19.2723C11.6634 20.2373 10.6372 20.8328 9.52578 20.8328C7.35229 20.8328 5.85487 18.6525 6.6351 16.6239L7.61012 14.0889C4.32162 14.877 2.08301 16.4353 2.08301 18.2289C2.08301 20.8177 6.74671 22.9164 12.4997 22.9164Z" fill="#A4A9B7"/>
</svg>
