<svg width="20" height="20" viewBox="0 0 20 20" fill="none" xmlns="http://www.w3.org/2000/svg">
<path d="M13.06 10.3C12.4963 10.298 11.9447 10.4632 11.475 10.7748C11.0052 11.0863 10.6383 11.5301 10.4208 12.0501C10.2033 12.5701 10.1448 13.143 10.2528 13.6962C10.3609 14.2494 10.6305 14.7582 11.0277 15.1582C11.4249 15.5581 11.9317 15.8313 12.4842 15.9433C13.0367 16.0552 13.6099 16.0007 14.1314 15.7869C14.6529 15.573 15.0993 15.2093 15.4141 14.7417C15.7289 14.2741 15.898 13.7237 15.9 13.16C15.899 12.4053 15.6001 11.6814 15.0682 11.1459C14.5364 10.6103 13.8147 10.3063 13.06 10.3ZM13.56 13.4C13.4848 13.4002 13.4103 13.3866 13.34 13.36L12.26 14.44C12.2013 14.499 12.1231 14.5346 12.04 14.54C11.94 14.54 11.86 14.52 11.82 14.44C11.7618 14.3736 11.7297 14.2883 11.7297 14.2C11.7297 14.1117 11.7618 14.0264 11.82 13.96L12.9 12.88C12.8593 12.7504 12.8488 12.6132 12.869 12.4789C12.8893 12.3446 12.9399 12.2167 13.0171 12.1049C13.0942 11.9931 13.1958 11.9003 13.3141 11.8336C13.4324 11.7669 13.5644 11.7281 13.7 11.72C13.7752 11.7199 13.8497 11.7334 13.92 11.76C13.96 11.76 13.96 11.8 13.94 11.84L13.44 12.32C13.4305 12.3269 13.4228 12.3359 13.4174 12.3463C13.4121 12.3567 13.4093 12.3683 13.4093 12.38C13.4093 12.3917 13.4121 12.4033 13.4174 12.4137C13.4228 12.4241 13.4305 12.4331 13.44 12.44L13.76 12.76C13.769 12.7696 13.7798 12.7772 13.7919 12.7824C13.8039 12.7876 13.8169 12.7903 13.83 12.7903C13.8431 12.7903 13.8561 12.7876 13.8681 12.7824C13.8802 12.7772 13.891 12.7696 13.9 12.76L14.38 12.28C14.4 12.26 14.48 12.26 14.48 12.3C14.4996 12.3721 14.513 12.4457 14.52 12.52C14.5184 12.642 14.4919 12.7624 14.442 12.8737C14.3922 12.9851 14.3201 13.085 14.2302 13.1675C14.1402 13.2499 14.0344 13.3131 13.9191 13.3531C13.8039 13.393 13.6817 13.409 13.56 13.4Z" fill="#4B4B4D"/>
<path d="M8.92001 10.44C10.6984 10.44 12.14 8.99836 12.14 7.22C12.14 5.44164 10.6984 4 8.92001 4C7.14166 4 5.70001 5.44164 5.70001 7.22C5.70001 8.99836 7.14166 10.44 8.92001 10.44Z" fill="#4B4B4D"/>
<path d="M9.77957 15.9396C10.3196 15.9396 10.0196 15.5596 10.0196 15.5596C9.57767 14.9988 9.2975 14.3278 9.20937 13.6193C9.12125 12.9107 9.22851 12.1916 9.51957 11.5396L9.55957 11.4596C9.58691 11.4254 9.60409 11.3841 9.60915 11.3406C9.61421 11.2971 9.60695 11.253 9.58819 11.2134C9.56944 11.1738 9.53994 11.1403 9.50305 11.1166C9.46617 11.093 9.42339 11.0801 9.37957 11.0796C9.22017 11.0625 9.05983 11.0559 8.89957 11.0596C7.72343 11.0636 6.58783 11.4898 5.69951 12.2607C4.81119 13.0315 4.22923 14.0958 4.05957 15.2596C4.05957 15.4996 4.13957 15.9596 4.89957 15.9596H9.67957C9.71175 15.9481 9.74544 15.9414 9.77957 15.9396Z" fill="#4B4B4D"/>
</svg>
