<svg width="20" height="20" viewBox="0 0 20 20" fill="none" xmlns="http://www.w3.org/2000/svg">
<g clip-path="url(#clip0_503_812)">
<path d="M10 0C4.93 0 0.744062 3.77406 0.09125 8.66531C0.090625 8.67031 0.09 8.675 0.089375 8.68C0.071875 8.81156 0.05625 8.94344 0.04375 9.07656C0.0378125 9.13813 0.0346875 9.20031 0.0296875 9.26219C0.023125 9.34969 0.0159375 9.43719 0.0115625 9.52531C0.004375 9.68219 0 9.84062 0 10C0 15.5228 4.47719 20 10 20C15.5228 20 20 15.5228 20 10C20 4.47719 15.5228 0 10 0ZM10.4256 18.2819C10.2006 18.5278 9.83156 18.7238 9.58969 18.4913C9.38562 18.29 9.55875 18.0413 9.58969 17.7559C9.62875 17.4231 9.47656 17.0231 9.79781 16.9197C10.0594 16.8388 10.2566 17.0203 10.4256 17.2359C10.6834 17.5547 10.6997 17.9769 10.4256 18.2819ZM13.5769 15.5844C13.2081 15.7744 12.95 15.7387 12.5384 15.7947C11.7716 15.8912 11.1653 16.2697 10.5594 15.7947C10.2884 15.5775 10.2537 15.3412 10.0437 15.0631C9.705 14.6369 9.62031 13.8509 9.10312 14.025C8.7725 14.1363 8.7825 14.4672 8.58625 14.7547C8.33313 15.1159 8.39656 15.6275 7.95969 15.69C7.65531 15.7331 7.49125 15.5469 7.23438 15.3775C6.94625 15.1856 6.88938 14.9563 6.60875 14.7547C6.31688 14.5394 6.08063 14.5381 5.77938 14.3378C5.5625 14.1931 5.51625 13.9303 5.25656 13.9209C5.02187 13.9141 4.85375 14.0291 4.73656 14.2322C4.5175 14.6116 4.44219 15.73 3.80281 15.69C3.32906 15.6578 2.31594 14.5934 1.92969 14.3378C1.80313 14.2525 1.68594 14.1656 1.56781 14.0994C0.99625 12.9256 0.664375 11.6144 0.63125 10.2291C0.823125 10.0681 1.01844 9.98875 1.19969 9.7625C1.48937 9.40938 1.35 8.97906 1.7225 8.72031C1.99937 8.53156 2.22312 8.56188 2.55656 8.51469C3.03437 8.44531 3.335 8.38281 3.80281 8.51469C4.25875 8.6425 4.43281 8.90406 4.84219 9.13719C5.28438 9.39031 5.48344 9.68906 5.98594 9.7625C6.35031 9.81406 6.60031 9.48094 6.91969 9.65719C7.17719 9.80031 7.35906 9.99031 7.33875 10.2825C7.3075 10.6631 6.55063 10.4213 6.50781 10.8019C6.45063 11.2888 7.29281 10.7413 7.75531 10.905C8.05969 11.0159 8.45563 10.9969 8.48188 11.3219C8.50719 11.6831 7.97938 11.5834 7.65156 11.7391C7.28844 11.9081 7.09813 12.0503 6.71281 12.1544C6.36125 12.2475 5.99031 11.9581 5.77938 12.2572C5.61375 12.4891 5.67219 12.7225 5.77938 12.9869C6.02531 13.5903 6.82594 13.4094 7.4425 13.1922C7.87469 13.0397 7.95531 12.6528 8.37906 12.4644C8.82844 12.2641 9.17719 12.0472 9.62313 12.2572C9.99125 12.4309 9.88844 12.8978 10.25 13.0894C10.6416 13.2981 11.01 12.8616 11.3947 13.0894C11.6938 13.2672 11.6719 13.5647 11.9119 13.8166C12.1912 14.1109 12.3525 14.3484 12.7456 14.4416C13.1475 14.535 13.3931 14.1069 13.7853 14.2319C14.0869 14.3303 14.3337 14.4444 14.4062 14.7544C14.5203 15.1981 13.9825 15.3744 13.5769 15.5844ZM14.3247 10.5753C13.9641 10.9378 13.6509 11.0563 13.1462 11.1669C12.6984 11.2653 12.0703 11.6163 11.9675 11.1669C11.8891 10.8081 12.2891 10.68 12.5591 10.4297C12.8587 10.15 13.1384 10.1225 13.4422 9.83844C13.7141 9.58781 13.6784 9.20375 14.0338 9.10125C14.3803 9.00125 14.7156 9.09531 14.9166 9.39719C15.2038 9.82438 14.6894 10.2128 14.3247 10.5753ZM18.7466 9.16219C18.5928 9.32094 18.6022 9.48844 18.445 9.64406C18.2709 9.8125 18.0291 9.74 17.9019 9.94656C17.79 10.1269 17.8612 10.2769 17.8412 10.4887C17.8284 10.6097 17.24 10.8813 17.1184 10.6091C17.0516 10.4588 17.2062 10.3256 17.1184 10.1863C17.0362 10.0609 16.945 10.1253 16.8375 10.2428C16.7253 10.3641 16.5963 10.5422 16.4559 10.6091C16.2719 10.6944 16.3947 9.90594 16.3325 9.64406C16.2869 9.43688 16.3356 9.30656 16.3944 9.10156C16.4725 8.81719 16.6875 8.72469 16.7553 8.4375C16.8159 8.18563 16.7656 8.03281 16.7553 7.77406C16.7431 7.49094 16.7506 7.32812 16.6966 7.05094C16.6366 6.75812 16.6178 6.57438 16.4556 6.32719C16.325 6.13219 16.2388 6.01438 16.0325 5.90469C15.9825 5.87719 15.9356 5.85906 15.8913 5.845C15.785 5.80969 15.6853 5.805 15.5481 5.78469C15.2706 5.74344 15.0725 5.91969 14.825 5.78469C14.6806 5.705 14.6356 5.605 14.525 5.4825C14.3988 5.34688 14.3653 5.23594 14.2228 5.12063C14.1163 5.03437 14.0503 4.98406 13.9213 4.93906C13.6744 4.85687 13.5019 4.91344 13.2569 5.00031C13.0163 5.08406 12.9262 5.22125 12.7134 5.36125C12.5503 5.45594 12.4344 5.47719 12.2922 5.60313C12.2059 5.67875 11.7953 5.97094 11.6275 5.96406C11.4575 5.9575 11.3616 5.85687 11.2094 5.84469C11.1891 5.84219 11.1687 5.84219 11.1456 5.84469C11.1456 5.84469 11.1456 5.84469 11.1441 5.84469C10.9963 5.85594 10.9266 5.92875 10.7859 5.96406C10.44 6.05031 10.2197 5.92812 9.87813 6.02562C9.65563 6.08812 9.56781 6.265 9.3375 6.26656C9.07469 6.26813 8.98594 6.03437 8.73375 5.96406C8.59562 5.92719 8.51437 5.92375 8.37219 5.90469C8.13813 5.87094 8.00406 5.8675 7.77031 5.845H7.76875C7.76375 5.84688 7.58406 5.86313 7.55375 5.845C7.42188 5.75563 7.32812 5.68219 7.165 5.60344C6.98531 5.515 6.87781 5.46969 6.68156 5.42094L6.68969 5.30188C6.68969 5.30188 6.68969 5.03719 6.65187 4.92469C6.61594 4.81187 6.57687 4.81188 6.65187 4.58531C6.72937 4.35969 6.86406 4.21594 6.86406 4.21594C6.95687 4.14469 7.02531 4.12063 7.10437 4.03469C7.26375 3.86625 7.32844 3.72281 7.34625 3.49125C7.36719 3.1875 6.96969 3.06406 7.04313 2.7675C7.10844 2.50938 7.32562 2.46125 7.52656 2.28531C7.77 2.07594 7.98531 2.04844 8.18906 1.80344C8.34562 1.61812 8.47375 1.50188 8.49219 1.26031C8.50875 1.055 8.42031 0.926562 8.31406 0.779687C8.86125 0.679687 9.42406 0.625 10 0.625C14.6622 0.625 18.5281 4.02906 19.2516 8.48688C19.1881 8.59688 19.2512 8.73563 19.1672 8.85969C19.0559 9.02938 18.8862 9.01562 18.7466 9.16219Z" fill="#4B4B4D"/>
</g>
<defs>
<clipPath id="clip0_503_812">
<rect width="20" height="20" fill="white"/>
</clipPath>
</defs>
</svg>
