<svg width="25" height="25" viewBox="0 0 25 25" fill="none" xmlns="http://www.w3.org/2000/svg">
<path d="M7.94276 4.6346C9.89775 3.85237 11.064 3.38574 12.5007 3.38574C13.9373 3.38574 15.1036 3.85237 17.0586 4.6346L20.1518 5.87189C21.1461 6.26961 21.9515 6.59174 22.5043 6.88159C22.7841 7.02827 23.0551 7.19458 23.2642 7.39505C23.479 7.60103 23.6986 7.91343 23.6986 8.33366C23.6986 8.75389 23.479 9.06628 23.2642 9.27226C23.0551 9.47274 22.7841 9.63904 22.5043 9.78573C21.9515 10.0756 21.1461 10.3977 20.1518 10.7954L17.0586 12.0327C15.1036 12.8149 13.9373 13.2816 12.5007 13.2816C11.064 13.2816 9.89775 12.8149 7.94277 12.0327L4.84956 10.7954C3.8552 10.3977 3.04982 10.0756 2.49697 9.78573C2.21717 9.63904 1.94612 9.47274 1.73712 9.27226C1.52237 9.06628 1.30273 8.75389 1.30273 8.33366C1.30273 7.91343 1.52237 7.60103 1.73712 7.39505C1.94612 7.19458 2.21717 7.02827 2.49697 6.88159C3.04983 6.59174 3.8552 6.26961 4.84957 5.87188L7.94276 4.6346Z" fill="#1C274C"/>
<path opacity="0.7" d="M2.60642 11.92L2.60279 11.9169C2.28157 11.6306 1.78886 11.6578 1.50132 11.9783C1.21321 12.2995 1.24033 12.7938 1.56151 13.0819C1.56151 13.0819 1.56119 13.0816 2.08287 12.5L1.56151 13.0819L1.56263 13.0828L1.56447 13.0845L1.56928 13.0888L1.58355 13.1013C1.59513 13.1113 1.61083 13.1247 1.63064 13.1412C1.67029 13.1743 1.72642 13.2199 1.79908 13.2761C1.94438 13.3883 2.15584 13.5427 2.43352 13.7228C2.98882 14.0829 3.80952 14.5463 4.89566 14.9806L7.82115 16.1508L7.94164 16.1991C9.89663 16.9813 11.0628 17.4479 12.4996 17.4479C13.9362 17.4479 15.1025 16.9813 17.0574 16.1991L17.1779 16.1508L20.1034 14.9806C21.1896 14.5463 22.0103 14.0829 22.5655 13.7228C22.8432 13.5427 23.0547 13.3883 23.2 13.2761C23.2727 13.2199 23.3287 13.1743 23.3684 13.1412C23.3882 13.1247 23.4039 13.1113 23.4155 13.1013L23.4298 13.0888L23.4346 13.0845L23.4364 13.0828L23.4379 13.0816C23.7591 12.7935 23.7858 12.2995 23.4978 11.9783C23.2102 11.6578 22.7177 11.6304 22.3966 11.9167L22.3948 11.9182L22.3927 11.92C22.3881 11.9241 22.3795 11.9314 22.367 11.9418C22.342 11.9627 22.3011 11.996 22.2446 12.0397C22.1312 12.1273 21.9549 12.2566 21.7154 12.4119C21.2363 12.7225 20.5056 13.137 19.5231 13.5299L16.5976 14.7001C14.4884 15.5438 13.6042 15.8854 12.4996 15.8854C11.395 15.8854 10.5106 15.5438 8.40146 14.7001L5.47597 13.5299C4.49349 13.137 3.76271 12.7225 3.28371 12.4119C3.04422 12.2566 2.8678 12.1273 2.75452 12.0397C2.69789 11.996 2.65707 11.9627 2.63206 11.9418C2.61956 11.9314 2.61102 11.9241 2.60642 11.92Z" fill="#1C274C"/>
<path opacity="0.4" d="M2.6036 16.1452C2.28237 15.8589 1.78984 15.8863 1.5023 16.2069C1.21418 16.528 1.24131 17.0223 1.56248 17.3104L1.56361 17.3113L1.56544 17.313L1.57026 17.3173L1.58453 17.3297C1.59611 17.3398 1.61181 17.3531 1.63162 17.3697C1.67127 17.4028 1.7274 17.4484 1.80006 17.5046C1.94536 17.6169 2.15682 17.7712 2.43449 17.9513C2.9898 18.3114 3.8105 18.7747 4.89664 19.2092L7.82213 20.3794L7.94262 20.4276C9.89761 21.2098 11.0638 21.6764 12.5005 21.6764C13.9372 21.6764 15.1035 21.2098 17.0584 20.4276L17.1789 20.3794L20.1044 19.2092C21.1905 18.7747 22.0113 18.3114 22.5665 17.9513C22.8442 17.7712 23.0557 17.6169 23.201 17.5046C23.2737 17.4484 23.3297 17.4028 23.3694 17.3697C23.3892 17.3531 23.4049 17.3398 23.4165 17.3297L23.4308 17.3173L23.4355 17.313L23.4374 17.3113L23.4389 17.3101C23.76 17.022 23.7868 16.528 23.4988 16.2069C23.2112 15.8863 22.7187 15.8589 22.3975 16.1452L22.3958 16.1467L22.3937 16.1485C22.3891 16.1525 22.3804 16.1599 22.3679 16.1703C22.3429 16.1911 22.3021 16.2245 22.2455 16.2682C22.1322 16.3558 21.9559 16.4851 21.7164 16.6404C21.2373 16.951 20.5066 17.3654 19.5241 17.7584L16.5986 18.9286C14.4894 19.7723 13.6051 20.1139 12.5005 20.1139C11.396 20.1139 10.5116 19.7723 8.40243 18.9286L5.47694 17.7584C4.49446 17.3654 3.76368 16.951 3.28468 16.6404C3.04519 16.4851 2.86878 16.3558 2.75549 16.2682C2.69887 16.2245 2.65805 16.1911 2.63304 16.1703C2.62054 16.1599 2.612 16.1525 2.6074 16.1485L2.6036 16.1452Z" fill="#1C274C"/>
</svg>
