<svg width="25" height="25" viewBox="0 0 25 25" fill="none" xmlns="http://www.w3.org/2000/svg">
<path d="M15.6493 23.333C16.9547 23.333 18.0748 23.2645 19.0106 23.0564C19.9584 22.8458 20.78 22.4786 21.4208 21.8378C22.0616 21.197 22.4288 20.3754 22.6395 19.4276C22.8475 18.4918 22.916 17.3717 22.916 16.0663V12.9163C22.916 11.7657 21.9833 10.833 20.8327 10.833H12.4993C11.3487 10.833 10.416 11.7657 10.416 12.9163V21.2497C10.416 22.4003 11.3487 23.333 12.4993 23.333H15.6493Z" fill="#C7C7CE"/>
<path d="M2.08301 15.2333C2.08301 16.5386 2.15159 17.6587 2.35959 18.5946C2.57022 19.5424 2.93739 20.364 3.57825 21.0048C4.2191 21.6456 5.04064 22.0128 5.98837 22.2234C6.07913 22.2435 6.17035 22.2625 6.26194 22.2802C7.39164 22.4984 8.33301 21.5423 8.33301 20.3917V12.0833C8.33301 10.9327 7.40027 10 6.24967 10H4.16634C3.01575 10 2.08301 10.9327 2.08301 12.0833V15.2333Z" fill="#838387"/>
<path d="M9.35034 2.08301C8.045 2.08301 6.92494 2.15159 5.98904 2.35959C5.04131 2.57022 4.21977 2.93739 3.57891 3.57825C2.93806 4.2191 2.57088 5.04064 2.36026 5.98837C2.34296 6.0662 2.32669 6.14427 2.31141 6.22257C2.0881 7.36704 3.06172 8.33301 4.22777 8.33301H20.8087C21.9593 8.33301 22.9155 7.39164 22.6972 6.26194C22.6795 6.17035 22.6606 6.07913 22.6405 5.98837C22.4297 5.04064 22.0627 4.2191 21.4217 3.57825C20.7809 2.93739 19.9593 2.57022 19.0116 2.35959C18.0757 2.15159 16.9557 2.08301 15.6504 2.08301H9.35034Z" fill="#1C274C"/>
</svg>
