<svg width="20" height="20" viewBox="0 0 20 20" fill="none" xmlns="http://www.w3.org/2000/svg">
<g clip-path="url(#clip0_503_840)">
<path d="M4.00039 0.799805C3.78039 0.799805 3.60039 0.979805 3.60039 1.1998V2.5959L0.968359 4.47559C0.864359 4.54759 0.800391 4.6718 0.800391 4.7998V6.3998C0.800391 6.6198 0.980391 6.7998 1.20039 6.7998H10.0004C10.2204 6.7998 10.4004 6.6198 10.4004 6.3998V4.7998C10.4004 4.6718 10.3364 4.54759 10.2324 4.47559L7.60039 2.5959V1.1998C7.60039 0.979805 7.42039 0.799805 7.20039 0.799805H4.00039ZM2.7957 8.7998C2.5761 8.7998 2.39648 8.9798 2.39648 9.19981V9.5998H0.799609C0.580009 9.5998 0.400391 9.77981 0.400391 9.9998V18.7998C0.400391 19.0198 0.580009 19.1998 0.799609 19.1998H10.3238C10.5754 19.1998 10.7785 18.9956 10.7785 18.7436V10.0326C10.7785 9.79342 10.5853 9.5998 10.3465 9.5998H8.78242V9.25371C8.78242 9.00291 8.5797 8.7998 8.3293 8.7998H2.7957ZM12.0348 9.5998C12.008 9.599 11.8369 9.59778 11.7105 9.73418C11.6125 9.83978 11.6024 9.96381 11.6004 9.9998V12.7998H19.6004V9.9998C19.6004 9.77981 19.4208 9.5998 19.2012 9.5998H18.3629H14.7707H12.0348ZM2.39648 11.1998H8.7832C9.0028 11.1998 9.18242 11.3798 9.18242 11.5998V17.1998C9.18242 17.4198 9.0028 17.5998 8.7832 17.5998H2.39648C2.17688 17.5998 1.99727 17.4198 1.99727 17.1998V11.5998C1.99727 11.3798 2.17688 11.1998 2.39648 11.1998ZM13.1738 11.1998H17.9637C18.1833 11.1998 18.3629 11.3798 18.3629 11.5998C18.3629 11.8198 18.1833 11.9998 17.9637 11.9998H13.1738C12.9542 11.9998 12.7746 11.8198 12.7746 11.5998C12.7746 11.3798 12.9542 11.1998 13.1738 11.1998ZM2.7957 11.9998V16.7998H8.38398V11.9998H2.7957ZM11.6004 13.5998V18.7998C11.6012 18.833 11.6078 18.9609 11.7074 19.0693C11.8306 19.2029 11.9974 19.2006 12.023 19.1998H19.2012C19.4208 19.1998 19.6004 19.0198 19.6004 18.7998V13.5998H11.6004ZM13.1738 14.7998C13.3934 14.7998 13.573 14.9798 13.573 15.1998V17.1998C13.573 17.4198 13.3934 17.5998 13.1738 17.5998C12.9542 17.5998 12.7746 17.4198 12.7746 17.1998V15.1998C12.7746 14.9798 12.9542 14.7998 13.1738 14.7998Z" fill="#4B4B4D"/>
</g>
<defs>
<clipPath id="clip0_503_840">
<rect width="20" height="20" fill="white"/>
</clipPath>
</defs>
</svg>
