<svg width="20" height="20" viewBox="0 0 20 20" fill="none" xmlns="http://www.w3.org/2000/svg">
<path d="M16.8243 11.7173L15.8827 10.1507C15.6743 9.809 15.491 9.15067 15.491 8.75067V7.19232C15.491 4.16732 13.0327 1.70898 10.016 1.70898C6.99102 1.71732 4.53269 4.16732 4.53269 7.19232V8.74233C4.53269 9.14233 4.34935 9.80067 4.14935 10.1423L3.20769 11.709C2.84936 12.3173 2.76602 13.009 2.99102 13.609C3.21602 14.2173 3.72435 14.7007 4.39102 14.9173C5.29102 15.2173 6.19935 15.434 7.12435 15.5923C7.21602 15.609 7.30769 15.6173 7.39935 15.634C7.51602 15.6507 7.64102 15.6673 7.76602 15.684C7.98269 15.7173 8.19935 15.7423 8.42433 15.759C8.94933 15.809 9.48266 15.834 10.016 15.834C10.541 15.834 11.066 15.809 11.5827 15.759C11.7743 15.7423 11.966 15.7257 12.1493 15.7007C12.2993 15.684 12.4493 15.6673 12.5993 15.6423C12.691 15.634 12.7827 15.6173 12.8743 15.6007C13.8077 15.4507 14.7327 15.2173 15.6327 14.9173C16.2743 14.7007 16.766 14.2173 16.9993 13.6007C17.2327 12.9757 17.166 12.2923 16.8243 11.7173ZM10.6243 8.334C10.6243 8.684 10.341 8.96733 9.991 8.96733C9.641 8.96733 9.35766 8.684 9.35766 8.334V5.75065C9.35766 5.40065 9.641 5.11732 9.991 5.11732C10.341 5.11732 10.6243 5.40065 10.6243 5.75065V8.334Z" fill="#4B4B4D"/>
<path d="M12.3578 16.6753C12.0078 17.642 11.0828 18.3337 9.99942 18.3337C9.34109 18.3337 8.69109 18.067 8.23275 17.592C7.96608 17.342 7.76608 17.0087 7.64941 16.667C7.75775 16.6837 7.86608 16.692 7.98275 16.7087C8.17441 16.7337 8.37442 16.7587 8.57442 16.7753C9.04942 16.817 9.53276 16.842 10.0161 16.842C10.4911 16.842 10.9661 16.817 11.4328 16.7753C11.6078 16.7587 11.7828 16.7503 11.9494 16.7253C12.0828 16.7087 12.2161 16.692 12.3578 16.6753Z" fill="#4B4B4D"/>
</svg>
