<svg width="20" height="20" viewBox="0 0 20 20" fill="none" xmlns="http://www.w3.org/2000/svg">
<g clip-path="url(#clip0_503_856)">
<path d="M14.9171 4.58311C14.6777 4.32975 14.3487 4.18019 14.0004 4.16645H13.3337V3.33311C13.3395 3.16739 13.3112 3.00225 13.2504 2.84796C13.1897 2.69367 13.0978 2.55353 12.9805 2.43628C12.8633 2.31903 12.7232 2.22716 12.5689 2.1664C12.4146 2.10564 12.2494 2.07729 12.0837 2.08311H9.12538C8.2222 1.27092 7.04835 0.825152 5.83372 0.833113C4.50764 0.833113 3.23587 1.3599 2.29818 2.29758C1.3605 3.23526 0.833719 4.50703 0.833719 5.83311C0.826871 5.98707 0.840887 6.14125 0.875385 6.29145H0.833719V14.5831C0.827898 14.7488 0.85625 14.914 0.917009 15.0683C0.977767 15.2226 1.06963 15.3627 1.18689 15.4799C1.30414 15.5972 1.44427 15.6891 1.59856 15.7498C1.75285 15.8106 1.918 15.8389 2.08372 15.8331H3.04205C3.22337 16.4324 3.59271 16.9574 4.09544 17.3305C4.59818 17.7036 5.20764 17.9051 5.83372 17.9051C6.45979 17.9051 7.06925 17.7036 7.57199 17.3305C8.07473 16.9574 8.44406 16.4324 8.62538 15.8331H11.3754C11.5567 16.4324 11.926 16.9574 12.4288 17.3305C12.9315 17.7036 13.541 17.9051 14.1671 17.9051C14.7931 17.9051 15.4026 17.7036 15.9053 17.3305C16.4081 16.9574 16.7774 16.4324 16.9587 15.8331H17.9171C18.0828 15.8389 18.2479 15.8106 18.4022 15.7498C18.5565 15.6891 18.6966 15.5972 18.8139 15.4799C18.9311 15.3627 19.023 15.2226 19.0838 15.0683C19.1445 14.914 19.1729 14.7488 19.1671 14.5831V9.24978L14.9171 4.58311ZM13.7921 5.83311L16.8337 9.16645H13.3337V5.83311H13.7921ZM5.83372 2.49978C6.49299 2.49978 7.13745 2.69528 7.68562 3.06155C8.23378 3.42782 8.66102 3.94841 8.91332 4.5575C9.16561 5.16659 9.23162 5.83681 9.103 6.48341C8.97439 7.13002 8.65692 7.72396 8.19074 8.19014C7.72457 8.65631 7.13062 8.97378 6.48402 9.1024C5.83742 9.23101 5.16719 9.165 4.55811 8.91271C3.94902 8.66042 3.42842 8.23318 3.06215 7.68501C2.69588 7.13685 2.50039 6.49238 2.50039 5.83311C2.50039 4.94906 2.85157 4.10121 3.4767 3.47609C4.10182 2.85097 4.94966 2.49978 5.83372 2.49978ZM2.50039 9.54145C3.41223 10.3715 4.60065 10.832 5.83372 10.8331C7.1598 10.8331 8.43157 10.3063 9.36925 9.36865C10.3069 8.43096 10.8337 7.15919 10.8337 5.83311C10.8352 5.11349 10.6788 4.40231 10.3754 3.74978H11.6671V13.4998C11.5449 13.7102 11.447 13.9339 11.3754 14.1664H8.62538C8.44406 13.5672 8.07473 13.0422 7.57199 12.6691C7.06925 12.2959 6.45979 12.0945 5.83372 12.0945C5.20764 12.0945 4.59818 12.2959 4.09544 12.6691C3.59271 13.0422 3.22337 13.5672 3.04205 14.1664H2.50039V9.54145ZM5.83372 16.2498C5.58649 16.2498 5.34482 16.1765 5.13926 16.0391C4.93369 15.9018 4.77348 15.7065 4.67887 15.4781C4.58426 15.2497 4.55951 14.9984 4.60774 14.7559C4.65597 14.5134 4.77502 14.2907 4.94983 14.1159C5.12465 13.9411 5.34738 13.822 5.58986 13.7738C5.83233 13.7256 6.08366 13.7503 6.31207 13.8449C6.54048 13.9395 6.7357 14.0998 6.87306 14.3053C7.01041 14.5109 7.08372 14.7526 7.08372 14.9998C7.08954 15.1655 7.06119 15.3306 7.00043 15.4849C6.93967 15.6392 6.8478 15.7794 6.73055 15.8966C6.6133 16.0139 6.47316 16.1057 6.31887 16.1665C6.16458 16.2272 5.99944 16.2556 5.83372 16.2498ZM14.1671 16.2498C13.9198 16.2498 13.6781 16.1765 13.4726 16.0391C13.267 15.9018 13.1068 15.7065 13.0122 15.4781C12.9176 15.2497 12.8928 14.9984 12.9411 14.7559C12.9893 14.5134 13.1084 14.2907 13.2832 14.1159C13.458 13.9411 13.6807 13.822 13.9232 13.7738C14.1657 13.7256 14.417 13.7503 14.6454 13.8449C14.8738 13.9395 15.069 14.0998 15.2064 14.3053C15.3437 14.5109 15.4171 14.7526 15.4171 14.9998C15.4229 15.1655 15.3945 15.3306 15.3338 15.4849C15.273 15.6392 15.1811 15.7794 15.0639 15.8966C14.9466 16.0139 14.8065 16.1057 14.6522 16.1665C14.4979 16.2272 14.3328 16.2556 14.1671 16.2498ZM16.9587 14.1664C16.7794 13.5651 16.411 13.0376 15.908 12.6623C15.4051 12.287 14.7946 12.0838 14.1671 12.0831C13.8844 12.0803 13.6031 12.1225 13.3337 12.2081V10.8331H17.5004V14.1664H16.9587Z" fill="#4B4B4D"/>
<path d="M8.33333 5.83301C8.33333 5.61199 8.24554 5.40003 8.08926 5.24375C7.93298 5.08747 7.72101 4.99967 7.5 4.99967H6.66667V4.16634C6.66667 3.94533 6.57887 3.73337 6.42259 3.57709C6.26631 3.42081 6.05435 3.33301 5.83333 3.33301C5.61232 3.33301 5.40036 3.42081 5.24408 3.57709C5.0878 3.73337 5 3.94533 5 4.16634V6.66634H7.5C7.72101 6.66634 7.93298 6.57854 8.08926 6.42226C8.24554 6.26598 8.33333 6.05402 8.33333 5.83301Z" fill="#4B4B4D"/>
</g>
<defs>
<clipPath id="clip0_503_856">
<rect width="20" height="20" fill="white"/>
</clipPath>
</defs>
</svg>
