<svg width="20" height="20" viewBox="0 0 20 20" fill="none" xmlns="http://www.w3.org/2000/svg">
<path d="M8.33333 13.333V11.6666M8.33333 11.6666V9.99967M8.33333 11.6666L10 11.6668M8.33333 11.6666L6.66667 11.6663M17.5 9.99967V9.33301C17.5 8.39959 17.5 7.93287 17.3183 7.57636C17.1586 7.26275 16.9036 7.00778 16.59 6.848C16.2335 6.66634 15.7667 6.66634 14.8333 6.66634H2.5M17.5 9.99967V13.333M17.5 9.99967H15.8333C14.9128 9.99967 14.1667 10.7458 14.1667 11.6663C14.1667 12.5868 14.9128 13.333 15.8333 13.333H17.5M2.5 6.66634V13.9997C2.5 14.9331 2.5 15.3998 2.68166 15.7563C2.84144 16.0699 3.09641 16.3249 3.41002 16.4847C3.76653 16.6663 4.23325 16.6663 5.16667 16.6663H14.8333C15.7667 16.6663 16.2335 16.6663 16.59 16.4847C16.9036 16.3249 17.1586 16.0699 17.3183 15.7563C17.5 15.3998 17.5 14.9331 17.5 13.9997V13.333M2.5 6.66634V5.99967C2.5 5.06626 2.5 4.59954 2.68166 4.24302C2.84144 3.92942 3.09641 3.67445 3.41002 3.51467C3.76653 3.33301 4.23324 3.33301 5.16667 3.33301H12.3333C13.2667 3.33301 13.7335 3.33301 14.09 3.51467C14.4036 3.67445 14.6586 3.92942 14.8183 4.24302C15 4.59954 15 5.06626 15 5.99967V6.66634" stroke="#4B4B4D" stroke-width="2" stroke-linecap="round" stroke-linejoin="round"/>
</svg>
