<svg width="25" height="25" viewBox="0 0 25 25" fill="none" xmlns="http://www.w3.org/2000/svg">
<path fill-rule="evenodd" clip-rule="evenodd" d="M17.2132 2.08301H17.2844C18.205 2.083 18.9474 2.083 19.5451 2.13982C20.1615 2.19842 20.6984 2.32255 21.1814 2.61848C21.6703 2.91809 22.0814 3.32917 22.381 3.81811C22.6769 4.30102 22.801 4.83803 22.8597 5.45439C22.9165 6.05207 22.9165 6.79451 22.9165 7.71512V7.78631C22.9165 8.39121 22.9165 8.89601 22.8775 9.30603C22.8368 9.73466 22.7483 10.1341 22.5238 10.5005C22.3041 10.859 22.0026 11.1605 21.6441 11.3803C21.2776 11.6048 20.8782 11.6932 20.4496 11.7339C20.0396 11.773 19.5347 11.7729 18.9298 11.7729H17.7789C16.9082 11.773 16.1823 11.773 15.6059 11.6955C14.9976 11.6137 14.4483 11.4338 14.007 10.9925C13.5656 10.5511 13.3857 10.0019 13.304 9.39355C13.2265 8.81722 13.2265 8.09123 13.2266 7.2206V6.06973C13.2266 5.46482 13.2265 4.95993 13.2655 4.54991C13.3063 4.12128 13.3947 3.72181 13.6192 3.35542C13.839 2.99687 14.1404 2.6954 14.499 2.47569C14.8653 2.25115 15.2648 2.16273 15.6934 2.12197C16.1034 2.08299 16.6083 2.083 17.2132 2.08301ZM18.0715 8.13921C17.5721 8.13921 17.3224 8.13921 17.146 8.0141C17.0839 7.96997 17.0295 7.91564 16.9853 7.85342C16.8602 7.67711 16.8602 7.42739 16.8602 6.92798C16.8602 6.42856 16.8602 6.17883 16.9853 6.00252C17.0295 5.9403 17.0839 5.88598 17.146 5.84183C17.3224 5.71673 17.5721 5.71673 18.0715 5.71673C18.5709 5.71673 18.8206 5.71673 18.997 5.84183C19.0592 5.88598 19.1134 5.9403 19.1576 6.00252C19.2827 6.17883 19.2827 6.42854 19.2827 6.92797C19.2827 7.42739 19.2827 7.67711 19.1576 7.85342C19.1134 7.91564 19.0592 7.96997 18.997 8.0141C18.8206 8.13921 18.5709 8.13921 18.0715 8.13921Z" fill="#1C274C"/>
<path fill-rule="evenodd" clip-rule="evenodd" d="M10.5015 2.47569C10.1351 2.25115 9.73564 2.16273 9.30701 2.12197C8.89697 2.08299 8.39214 2.083 7.78721 2.08301H7.71611C6.79552 2.083 6.05304 2.083 5.45537 2.13982C4.83901 2.19842 4.302 2.32255 3.81909 2.61848C3.33015 2.91809 2.91907 3.32917 2.61945 3.81811C2.32353 4.30102 2.1994 4.83803 2.1408 5.45439C2.08397 6.05206 2.08397 6.79449 2.08398 7.71508V7.7862C2.08397 8.39112 2.08396 8.896 2.12294 9.30603C2.1637 9.73466 2.25213 10.1341 2.47666 10.5005C2.69638 10.859 2.99785 11.1605 3.3564 11.3803C3.72279 11.6048 4.12226 11.6932 4.55089 11.7339C4.96089 11.773 5.46568 11.7729 6.07056 11.7729H7.22158C8.09218 11.773 8.81819 11.773 9.39453 11.6955C10.0029 11.6137 10.5521 11.4338 10.9935 10.9925C11.4348 10.5511 11.6147 10.0019 11.6965 9.39355C11.774 8.81722 11.774 8.09124 11.7739 7.22063V6.06974C11.7739 5.46486 11.774 4.95991 11.7349 4.54991C11.6942 4.12128 11.6058 3.72181 11.3813 3.35542C11.1615 2.99687 10.86 2.6954 10.5015 2.47569ZM6.00349 8.0141C6.17981 8.13921 6.42952 8.13921 6.92894 8.13921C7.42837 8.13921 7.67809 8.13921 7.8544 8.0141C7.91662 7.96997 7.97094 7.91564 8.01508 7.85342C8.14018 7.67711 8.14018 7.42739 8.14018 6.92797C8.14018 6.42854 8.14018 6.17883 8.01508 6.00252C7.97094 5.9403 7.91662 5.88598 7.8544 5.84183C7.67809 5.71673 7.42837 5.71673 6.92894 5.71673C6.42952 5.71673 6.17981 5.71673 6.00349 5.84183C5.94128 5.88598 5.88695 5.9403 5.84281 6.00252C5.7177 6.17883 5.7177 6.42854 5.7177 6.92797C5.7177 7.42739 5.7177 7.67711 5.84281 7.85342C5.88695 7.91564 5.94128 7.96997 6.00349 8.0141Z" fill="#1C274C"/>
<path fill-rule="evenodd" clip-rule="evenodd" d="M9.39355 13.304C10.0019 13.3857 10.5511 13.5656 10.9925 14.007C11.4338 14.4483 11.6137 14.9976 11.6955 15.6059C11.773 16.1823 11.773 16.9082 11.7729 17.7789V18.9298C11.7729 19.5347 11.773 20.0396 11.7339 20.4496C11.6932 20.8782 11.6048 21.2776 11.3803 21.6441C11.1605 22.0026 10.8591 22.3041 10.5005 22.5238C10.1341 22.7483 9.73467 22.8368 9.30603 22.8775C8.89601 22.9165 8.3911 22.9165 7.78621 22.9165H7.71512C6.79451 22.9165 6.05207 22.9165 5.45439 22.8597C4.83803 22.801 4.30102 22.6769 3.81811 22.381C3.32917 22.0814 2.91809 21.6703 2.61848 21.1814C2.32255 20.6984 2.19842 20.1615 2.13982 19.5451C2.083 18.9474 2.083 18.205 2.08301 17.2844V17.2132C2.083 16.6083 2.08299 16.1034 2.12197 15.6934C2.16273 15.2648 2.25115 14.8653 2.47569 14.499C2.6954 14.1404 2.99687 13.839 3.35543 13.6192C3.72181 13.3947 4.12128 13.3063 4.54991 13.2655C4.95992 13.2265 5.46476 13.2266 6.06964 13.2266H7.2206C8.09123 13.2265 8.81722 13.2265 9.39355 13.304ZM6.92797 19.2827C6.42854 19.2827 6.17883 19.2827 6.00252 19.1576C5.9403 19.1134 5.88598 19.0592 5.84183 18.997C5.71673 18.8206 5.71673 18.5709 5.71673 18.0715C5.71673 17.5721 5.71673 17.3224 5.84183 17.146C5.88598 17.0839 5.9403 17.0295 6.00252 16.9853C6.17883 16.8602 6.42854 16.8602 6.92796 16.8602C7.42737 16.8602 7.67711 16.8602 7.85343 16.9853C7.91564 17.0295 7.96997 17.0839 8.0141 17.146C8.13921 17.3224 8.13921 17.5721 8.13921 18.0715C8.13921 18.5709 8.13921 18.8206 8.0141 18.997C7.96997 19.0592 7.91564 19.1134 7.85343 19.1576C7.67711 19.2827 7.42739 19.2827 6.92797 19.2827Z" fill="#1C274C"/>
<path d="M13.2268 17.3078V17.345H14.6802C14.6802 16.6493 14.6812 16.1824 14.7173 15.8263C14.7523 15.4825 14.8142 15.3236 14.8844 15.2185C14.9727 15.0862 15.0863 14.9727 15.2186 14.8843C15.3237 14.8141 15.4825 14.7523 15.8264 14.7173C16.1824 14.6811 16.6494 14.6802 17.345 14.6802H19.283V13.2267H17.3078C16.659 13.2267 16.1176 13.2266 15.6793 13.2712C15.2206 13.318 14.7948 13.4195 14.4111 13.6758C14.1201 13.8702 13.8702 14.1201 13.6759 14.411C13.4195 14.7948 13.3181 15.2205 13.2713 15.6792C13.2267 16.1176 13.2268 16.6589 13.2268 17.3078Z" fill="#A4A9B7"/>
<path d="M22.9174 19.3077V19.2832H21.4638C21.4638 19.7447 21.4635 20.0543 21.4472 20.2941C21.4312 20.5274 21.4027 20.641 21.3716 20.7157C21.2487 21.0126 21.013 21.2483 20.7161 21.3712C20.6414 21.4023 20.5278 21.4308 20.2946 21.4467C20.0548 21.4631 19.7451 21.4634 19.2836 21.4634H17.3457V22.917H19.3081C19.7388 22.917 20.0983 22.917 20.3935 22.8968C20.7008 22.8759 20.991 22.8307 21.2724 22.7141C21.9253 22.4436 22.444 21.9249 22.7146 21.272C22.8311 20.9906 22.8763 20.7004 22.8973 20.3931C22.9174 20.0979 22.9174 19.7384 22.9174 19.3077Z" fill="#A4A9B7"/>
<path d="M14.68 22.1902C14.68 22.5915 14.3547 22.917 13.9532 22.917C13.5519 22.917 13.2266 22.5915 13.2266 22.1902V19.2832H14.68V22.1902Z" fill="#A4A9B7"/>
<path d="M22.1899 13.2267C21.7885 13.2267 21.4631 13.5521 21.4631 13.9534V17.345H22.9167V13.9534C22.9167 13.5521 22.5913 13.2267 22.1899 13.2267Z" fill="#A4A9B7"/>
<path d="M16.7453 17.31C16.666 17.5015 16.666 17.7442 16.666 18.2295C16.666 18.7148 16.666 18.9575 16.7453 19.149C16.851 19.4042 17.0538 19.607 17.309 19.7127C17.5005 19.792 17.7432 19.792 18.2285 19.792C18.7138 19.792 18.9565 19.792 19.148 19.7127C19.4032 19.607 19.606 19.4042 19.7117 19.149C19.791 18.9575 19.791 18.7148 19.791 18.2295C19.791 17.7442 19.791 17.5015 19.7117 17.31C19.606 17.0548 19.4032 16.852 19.148 16.7463C18.9565 16.667 18.7138 16.667 18.2285 16.667C17.7432 16.667 17.5005 16.667 17.309 16.7463C17.0538 16.852 16.851 17.0548 16.7453 17.31Z" fill="#606882"/>
</svg>
