<svg width="20" height="20" viewBox="0 0 20 20" fill="none" xmlns="http://www.w3.org/2000/svg">
<path d="M9.375 3.125C9.375 2.78 9.095 2.5 8.75 2.5H8.09313C8.11375 2.60125 8.125 2.70562 8.125 2.8125V4.0625C8.125 4.92375 7.42438 5.625 6.5625 5.625C6.49563 5.625 6.42812 5.62063 6.35938 5.61188C5.58437 5.5125 5 4.8325 5 4.03V3.93937C5 3.46187 5.34312 3.03563 5.81687 2.97625C5.97 2.95688 6.11688 2.975 6.25 3.0225V2.8125C6.25 2.64 6.39 2.5 6.5625 2.5C6.735 2.5 6.875 2.64 6.875 2.8125V4.045C6.875 4.20125 6.76813 4.34625 6.61375 4.37125C6.59625 4.37375 6.57937 4.375 6.5625 4.375C6.39 4.375 6.25 4.23438 6.25 4.0625V3.90625C6.25 3.71625 6.08063 3.56625 5.885 3.59812C5.73125 3.62312 5.625 3.7675 5.625 3.92313V4.02437C5.625 4.51063 5.97875 4.94438 6.4625 4.995C6.49625 4.99813 6.52938 5 6.5625 5C7.07937 5 7.5 4.57938 7.5 4.0625V2.8125C7.5 2.295 7.08 1.875 6.5625 1.875C6.155 1.875 5.81125 2.13688 5.6825 2.5H5.03187H3.75C3.405 2.5 3.125 2.78 3.125 3.125V9.375C3.125 9.72 3.405 10 3.75 10H8.75C9.095 10 9.375 9.72 9.375 9.375V3.125ZM7.1875 8.125H5.3125C5.14 8.125 5 7.985 5 7.8125C5 7.64 5.14 7.5 5.3125 7.5H7.1875C7.36 7.5 7.5 7.64 7.5 7.8125C7.5 7.985 7.36 8.125 7.1875 8.125ZM7.1875 6.875H5.3125C5.14 6.875 5 6.735 5 6.5625C5 6.39 5.14 6.25 5.3125 6.25H7.1875C7.36 6.25 7.5 6.39 7.5 6.5625C7.5 6.735 7.36 6.875 7.1875 6.875ZM18.75 16.0112V16.25C18.75 17.2856 17.9106 18.125 16.875 18.125H3.125C2.08938 18.125 1.25 17.2856 1.25 16.25V16.0112C1.70875 16.5363 2.375 16.875 3.125 16.875H16.875C17.625 16.875 18.2913 16.5363 18.75 16.0112ZM3.125 16.25H16.875C17.9106 16.25 18.75 15.4106 18.75 14.375V5C18.75 3.96438 17.9106 3.125 16.875 3.125H10V9.375C10 10.0644 9.43937 10.625 8.75 10.625H3.75C3.06062 10.625 2.5 10.0644 2.5 9.375V3.24C1.77312 3.49812 1.25 4.185 1.25 5V14.375C1.25 15.4106 2.08938 16.25 3.125 16.25ZM3.4375 13.75H5.18313L6.96688 11.9662C7.025 11.9081 7.10437 11.875 7.1875 11.875H9.55813L11.3419 10.0912C11.4637 9.96937 11.6619 9.96937 11.7838 10.0912L12.9419 11.25H13.9331L15.8081 9.375H14.0625C13.89 9.375 13.75 9.235 13.75 9.0625C13.75 8.89 13.89 8.75 14.0625 8.75H16.5625C16.6031 8.75 16.6438 8.75812 16.6819 8.77375C16.7581 8.80562 16.8194 8.86625 16.8512 8.94312C16.8669 8.98125 16.875 9.02187 16.875 9.0625V11.5625C16.875 11.735 16.735 11.875 16.5625 11.875C16.39 11.875 16.25 11.735 16.25 11.5625V9.81687L14.2838 11.7831C14.225 11.8419 14.1456 11.875 14.0625 11.875H12.8125C12.7294 11.875 12.65 11.8419 12.5912 11.7838L11.5625 10.7544L9.90875 12.4081C9.85 12.4669 9.77063 12.5 9.6875 12.5H7.31687L5.53312 14.2838C5.475 14.3419 5.39563 14.375 5.3125 14.375H3.4375C3.265 14.375 3.125 14.235 3.125 14.0625C3.125 13.89 3.265 13.75 3.4375 13.75Z" fill="#4B4B4D"/>
</svg>
