<svg width="25" height="25" viewBox="0 0 25 25" fill="none" xmlns="http://www.w3.org/2000/svg">
<path d="M23.2137 21.3224C23.2137 22.3628 22.3628 23.2137 21.3224 23.2137H3.67845C2.63806 23.2137 1.7871 22.3628 1.7871 21.3224V3.67847C1.7871 2.63807 2.63806 1.78711 3.67845 1.78711H21.3224C22.3628 1.78711 23.2137 2.63807 23.2137 3.67847V21.3224ZM23.2137 8.51905L21.2787 7.21541C21.3175 7.04832 21.3408 6.87444 21.3408 6.69473C21.3408 5.43771 20.3218 4.41772 19.0638 4.41772C17.8058 4.41772 16.7868 5.43674 16.7868 6.69473C16.7868 7.18918 16.9461 7.64575 17.2142 8.01974L13.0303 14.4175C12.8603 14.3767 12.6826 14.3524 12.4999 14.3524C11.9394 14.3524 11.4275 14.5555 11.0302 14.8916L8.22956 13.28C8.24413 13.177 8.25385 13.0731 8.25385 12.9662C8.25385 11.7092 7.23483 10.6892 5.97684 10.6892C4.71885 10.6892 3.69983 11.7082 3.69983 12.9662C3.69983 13.278 3.76297 13.5753 3.87662 13.8463L1.78516 15.7863V17.8505L4.89176 14.9683C5.21427 15.1432 5.58341 15.2423 5.97587 15.2423C6.57815 15.2423 7.12408 15.0072 7.53111 14.6244L10.2637 16.1972C10.2365 16.3371 10.2219 16.4808 10.2219 16.6285C10.2219 17.8855 11.241 18.9045 12.499 18.9045C13.7569 18.9045 14.776 17.8855 14.776 16.6285C14.776 16.1049 14.5972 15.624 14.3 15.2393L18.4547 8.88625C18.649 8.93968 18.852 8.97077 19.0628 8.97077C19.5903 8.97077 20.0741 8.79009 20.4607 8.48894L23.2128 10.3434L23.2137 8.51905Z" fill="#1C274C"/>
</svg>
