<svg width="24" height="24" viewBox="0 0 24 24" fill="none" xmlns="http://www.w3.org/2000/svg">
<g clip-path="url(#clip0_503_801)">
<path d="M12.9857 12.3165L11.7382 12.1814C11.5676 12.163 11.4232 12.0508 11.3577 11.8921C11.3569 11.8903 11.3561 11.8883 11.3554 11.8865C11.2896 11.7279 11.3122 11.5465 11.4199 11.4128L12.2064 10.4352C12.3547 10.2509 12.3404 9.98446 12.1731 9.81717L10.7007 8.34478C10.5334 8.17748 10.267 8.16309 10.0826 8.3114L9.10462 9.09829C8.97122 9.20564 8.79037 9.22842 8.63203 9.16326C8.6303 9.16256 8.62856 9.16185 8.62683 9.16115C8.46764 9.09581 8.355 8.95124 8.33648 8.78015L8.20134 7.53215C8.17589 7.29693 7.97733 7.11871 7.74075 7.11871H5.65847C5.42189 7.11871 5.22333 7.29693 5.19787 7.53215L5.06273 8.78015C5.04422 8.9512 4.93153 9.09581 4.77234 9.16115C4.77061 9.16185 4.76887 9.16256 4.76719 9.16326C4.60884 9.22846 4.428 9.20564 4.29459 9.09829L3.3165 8.3114C3.13219 8.16309 2.86575 8.17748 2.6985 8.34478L1.22611 9.81717C1.05881 9.98446 1.04442 10.2509 1.19273 10.4352L1.9793 11.4128C2.08692 11.5466 2.10956 11.7279 2.0438 11.8865C2.043 11.8883 2.04225 11.8903 2.04145 11.8921C1.97587 12.0508 1.83159 12.163 1.66092 12.1814L0.413437 12.3165C0.178219 12.342 0 12.5406 0 12.7771V14.8594C0 15.096 0.178219 15.2946 0.413437 15.32L1.66087 15.4551C1.83155 15.4735 1.97587 15.5857 2.04141 15.7444C2.0422 15.7462 2.04295 15.7482 2.04375 15.75C2.10952 15.9086 2.08687 16.09 1.97925 16.2238L1.19269 17.2013C1.04437 17.3857 1.05877 17.6521 1.22606 17.8194L2.69845 19.2918C2.86575 19.4591 3.13219 19.4735 3.3165 19.3252L4.2945 18.5383C4.42791 18.4309 4.60875 18.4081 4.76709 18.4733C4.76883 18.474 4.77056 18.4747 4.7723 18.4754C4.93148 18.5407 5.04412 18.6853 5.06264 18.8564L5.19778 20.1044C5.22323 20.3396 5.4218 20.5178 5.65837 20.5178H7.74066C7.97723 20.5178 8.1758 20.3396 8.20125 20.1044L8.33639 18.8564C8.35491 18.6854 8.46755 18.5407 8.62673 18.4754C8.62847 18.4747 8.6302 18.474 8.63189 18.4733C8.79023 18.4081 8.97108 18.4309 9.10453 18.5383L10.0825 19.3252C10.2668 19.4735 10.5333 19.4591 10.7006 19.2918L12.173 17.8194C12.3403 17.6521 12.3546 17.3857 12.2063 17.2013L11.4198 16.2238C11.3122 16.09 11.2895 15.9087 11.3553 15.75C11.356 15.7482 11.3568 15.7463 11.3576 15.7444C11.4232 15.5857 11.5675 15.4735 11.7382 15.4551L12.9856 15.32C13.2208 15.2945 13.399 15.0959 13.399 14.8594V12.7771C13.3991 12.5406 13.2209 12.342 12.9857 12.3165ZM6.69956 15.907C5.54602 15.907 4.61086 14.9718 4.61086 13.8183C4.61086 12.6647 5.54602 11.7296 6.69956 11.7296C7.85311 11.7296 8.78827 12.6647 8.78827 13.8183C8.78827 14.9718 7.85311 15.907 6.69956 15.907Z" fill="#4B4B4D"/>
<path d="M23.7877 10.2287L22.9313 9.55244C22.7949 9.44472 22.7191 9.27958 22.719 9.10572C22.719 9.10389 22.719 9.10206 22.719 9.10019C22.7188 8.92596 22.7946 8.76039 22.9313 8.65244L23.7877 7.97613C23.9838 7.82125 24.0532 7.55496 23.9575 7.3241L23.5814 6.41594C23.4857 6.18503 23.2484 6.04581 23.0002 6.07497L21.9165 6.20228C21.7434 6.22263 21.5727 6.15916 21.4498 6.03574C21.4485 6.03442 21.4472 6.03311 21.4459 6.03185C21.323 5.90885 21.2598 5.7385 21.2801 5.56586L21.4074 4.48216C21.4365 4.234 21.2973 3.99663 21.0664 3.901L20.1583 3.52488C19.9274 3.42925 19.6611 3.49863 19.5062 3.69471L18.8299 4.55102C18.7222 4.68747 18.557 4.76317 18.3832 4.76327C18.3813 4.76327 18.3795 4.76327 18.3777 4.76327C18.2035 4.76355 18.0379 4.68775 17.9299 4.55102L17.2536 3.69466C17.0987 3.49853 16.8324 3.42916 16.6015 3.52478L15.6934 3.90096C15.4625 3.99658 15.3233 4.23396 15.3524 4.48216L15.4797 5.56591C15.5001 5.73892 15.4366 5.9096 15.3132 6.0326C15.3119 6.03391 15.3105 6.03522 15.3092 6.03653C15.1862 6.15944 15.0159 6.22263 14.8433 6.20233L13.7595 6.07502C13.5113 6.04586 13.274 6.18513 13.1784 6.41599L12.8022 7.32414C12.7066 7.555 12.776 7.82135 12.9721 7.97622L13.8284 8.65249C13.9649 8.76025 14.0406 8.92535 14.0407 9.09921C14.0407 9.10108 14.0407 9.10291 14.0407 9.10474C14.041 9.27897 13.9651 9.44453 13.8284 9.55249L12.972 10.2288C12.7759 10.3837 12.7065 10.65 12.8022 10.8808L13.1783 11.789C13.274 12.0198 13.5113 12.1591 13.7595 12.13L14.8433 12.0026C15.0163 11.9823 15.187 12.0458 15.31 12.1692C15.3113 12.1705 15.3126 12.1718 15.3139 12.1731C15.4368 12.2961 15.5 12.4664 15.4797 12.6391L15.3524 13.7228C15.3232 13.971 15.4625 14.2083 15.6933 14.304L16.6015 14.6801C16.8323 14.7758 17.0986 14.7064 17.2536 14.5103L17.9298 13.654C18.0376 13.5175 18.2027 13.4418 18.3765 13.4417C18.3784 13.4417 18.3802 13.4417 18.3821 13.4417C18.5563 13.4414 18.7219 13.5172 18.8298 13.654L19.5061 14.5103C19.661 14.7064 19.9273 14.7758 20.1582 14.6802L21.0664 14.304C21.2972 14.2084 21.4365 13.971 21.4073 13.7229L21.28 12.6391C21.2597 12.4661 21.3232 12.2954 21.4466 12.1724C21.4479 12.1711 21.4492 12.1698 21.4505 12.1685C21.5735 12.0457 21.7438 11.9824 21.9165 12.0027L23.0002 12.13C23.2485 12.1592 23.4858 12.0199 23.5814 11.7891L23.9576 10.8809C24.0531 10.6499 23.9838 10.3836 23.7877 10.2287ZM18.9351 10.7204C18.064 11.0812 17.0653 10.6675 16.7044 9.79638C16.3436 8.92521 16.7573 7.92653 17.6284 7.56569C18.4995 7.20485 19.4983 7.61852 19.8591 8.48969C20.2199 9.36082 19.8062 10.3596 18.9351 10.7204Z" fill="#4B4B4D"/>
</g>
<defs>
<clipPath id="clip0_503_801">
<rect width="24" height="24" fill="white"/>
</clipPath>
</defs>
</svg>
