<svg width="20" height="20" viewBox="0 0 20 20" fill="none" xmlns="http://www.w3.org/2000/svg">
<path d="M13.492 1.66699H6.50866C3.47533 1.66699 1.66699 3.47533 1.66699 6.50866V13.4837C1.66699 16.5253 3.47533 18.3337 6.50866 18.3337H13.4837C16.517 18.3337 18.3253 16.5253 18.3253 13.492V6.50866C18.3337 3.47533 16.5253 1.66699 13.492 1.66699ZM6.39199 4.58366C6.39199 4.24199 6.67533 3.95866 7.01699 3.95866C7.35866 3.95866 7.64199 4.24199 7.64199 4.58366V7.83366C7.64199 8.17532 7.35866 8.45866 7.01699 8.45866C6.67533 8.45866 6.39199 8.17532 6.39199 7.83366V4.58366ZM7.93601 13.6931C7.76648 13.7683 7.64199 13.928 7.64199 14.1135V15.417C7.64199 15.7587 7.35866 16.042 7.01699 16.042C6.67533 16.042 6.39199 15.7587 6.39199 15.417V14.1135C6.39199 13.928 6.26749 13.7683 6.09802 13.6929C5.30262 13.339 4.75033 12.5487 4.75033 11.6253C4.75033 10.3753 5.76699 9.35033 7.01699 9.35033C8.26699 9.35033 9.29199 10.367 9.29199 11.6253C9.29199 12.5488 8.73291 13.3392 7.93601 13.6931ZM13.6087 15.417C13.6087 15.7587 13.3253 16.042 12.9837 16.042C12.642 16.042 12.3587 15.7587 12.3587 15.417V12.167C12.3587 11.8253 12.642 11.542 12.9837 11.542C13.3253 11.542 13.6087 11.8253 13.6087 12.167V15.417ZM12.9837 10.642C11.7337 10.642 10.7087 9.62533 10.7087 8.36699C10.7087 7.44353 11.2677 6.65318 12.0647 6.29927C12.2342 6.22398 12.3587 6.06433 12.3587 5.87883V4.58366C12.3587 4.24199 12.642 3.95866 12.9837 3.95866C13.3253 3.95866 13.6087 4.24199 13.6087 4.58366V5.88717C13.6087 6.07267 13.7332 6.23228 13.9027 6.3077C14.698 6.66166 15.2503 7.45195 15.2503 8.37533C15.2503 9.62533 14.2337 10.642 12.9837 10.642Z" fill="#4B4B4D"/>
</svg>
