<svg width="20" height="20" viewBox="0 0 20 20" fill="none" xmlns="http://www.w3.org/2000/svg">
<g clip-path="url(#clip0_503_873)">
<path d="M4.7253 16.9756L8.10909 12.8724L9.65694 14.8467L6.67354 18.6407C5.53096 20.0925 3.4167 18.5625 4.7253 16.9756ZM8.67712 7.63155C8.99939 6.58011 8.85127 5.68168 7.64034 4.34704L4.68135 0.78747C4.26143 0.294306 3.27185 1.01859 3.68526 1.61592L6.0518 4.53096C6.49939 5.07458 5.66768 5.79398 5.20544 5.23408L2.75752 2.21976C2.3018 1.6973 1.35941 2.3874 1.8363 2.98474C2.5264 3.81481 3.59411 5.17061 4.28422 6.00069C4.76273 6.48734 4.03519 7.20837 3.56319 6.60127L1.13318 3.60648C0.77673 3.21911 0.194048 3.46 0.0394258 3.91247C-0.12659 4.39587 0.281939 4.74906 0.560259 5.10713L3.27185 8.60974C4.11332 9.58467 5.05407 10.1625 6.14782 9.83532C6.31547 9.78487 6.52055 9.68233 6.74027 9.54724L14.0254 18.9515C14.4177 19.4577 15.1745 19.5114 15.6661 19.1029L15.7784 19.0101C16.3317 18.5495 16.4213 17.708 15.9476 17.1644L8.23279 8.30049C8.45739 8.04984 8.62178 7.81221 8.67712 7.63155ZM10.7393 9.68233L11.9388 8.22725C10.3959 4.40238 16.1136 -0.695277 18.8855 1.64847C22.253 4.49841 17.2481 11.3669 13.7308 9.66931L12.3099 11.4743L10.7393 9.68233Z" fill="#4B4B4D"/>
</g>
<defs>
<clipPath id="clip0_503_873">
<rect width="20" height="20" fill="white"/>
</clipPath>
</defs>
</svg>
